<svg xmlns="http://www.w3.org/2000/svg"><style>:root svg:not(:target){display:none}</style><svg aria-label="Конверт." fill="none" id="envelope" viewBox="0 0 18 14"><path d="M16.875 0H1.125C.827 0 .54.123.33.342.119.56 0 .857 0 1.167v11.666c0 .31.119.607.33.825.21.22.497.342.795.342h15.75c.298 0 .584-.123.796-.342.21-.218.329-.515.329-.825V1.167c0-.31-.119-.606-.33-.825A1.105 1.105 0 0 0 16.875 0Zm-.866 12.833H2.059L5.996 8.61l-.81-.81-4.061 4.357V2.053L8.117 9.27c.21.217.496.34.793.34.297 0 .582-.123.793-.34l7.172-7.396V12.08l-4.14-4.293-.793.822 4.067 4.223ZM1.862 1.167h14.102L8.91 8.44 1.862 1.167Z" fill="currentColor"></path></svg><svg aria-label="Логотип html-Академии." fill="none" id="htmlacademy" viewBox="0 0 26 32"><path d="M13.145 0h-.097L0 1.314v23.179L13.048 32 26 24.493V1.313L13.145 0Zm11.019 11.355L13.048 4.974V4.88h-.096l-.097-.094v.094L1.836 11.355V2.909l11.116-1.126 11.212 1.126v8.446ZM12.952 6.38l11.115 6.288-4.35 2.44-6.862-3.942v1.314l5.703 3.284-.87.47-4.833-2.816v1.314l3.673 2.159-.773.469-2.9-1.69v1.314l1.836 1.033-1.74 1.032-11.018-6.288 11.019-6.38Zm-11.116 7.79 11.019 6.38v.939l-7.636-4.41v1.313l7.733 4.504v1.033l-7.733-4.41v1.313l7.733 4.504 7.829-4.598v-4.88l3.286-1.877v9.385l-11.115 6.475L1.836 23.46v-9.29Z" fill="currentColor"></path></svg><svg aria-label="Листок." fill="none" id="leaf-crooked" viewBox="0 0 21 22"><path d="M6.503 16.996c11.954 0 12.917-10.17 12.994-15.003a.982.982 0 0 0-1.006-.988C1.503 1.317 1.503 9.553 1.503 16.995v4" stroke="#0F805D" stroke-width="2" stroke-linecap="round" stroke-linejoin="round"></path><path d="M1.503 16.996s0-6 8-7" stroke="#0F805D" stroke-width="2" stroke-linecap="round" stroke-linejoin="round"></path></svg><svg aria-label="Листок." fill="none" id="leaf-straight" viewBox="0 0 16 24"><path d="M13.487 5.979c-1.24-2.101-3-3.847-5.111-5.07L8 .692l-.376.217a14.113 14.113 0 0 0-7.05 12.717c.075 2.196.915 4.044 2.429 5.345 1.159.994 2.646 1.602 4.247 1.747v2.59h1.5v-12h-1.5v7.9c-2.534-.293-5.056-2.084-5.177-5.633A12.67 12.67 0 0 1 8 2.434a12.67 12.67 0 0 1 5.927 11.141c-.096 2.84-1.73 4.553-3.677 5.275v1.588a7.321 7.321 0 0 0 2.747-1.468c1.514-1.3 2.354-3.148 2.43-5.344a14.107 14.107 0 0 0-1.94-7.647Z" fill="#000"></path></svg><svg fill="none" aria-label="Декоративная иконка ветки с листами и ягодами большая." id="leaves-and-berries-news-decor" viewBox="0 0 96 40"><path d="M80.11 18.005a48.31 48.31 0 0 1-2.16-3.388c-.898-1.564-2.743-7.003-.22-8.34-.558 2.328 1.873 5.75 2.644 7.772.947 2.48 1.923 5.68 3.386 8.23-1.377-1.203-2.526-2.655-3.65-4.274Zm4.18-2.098c.216 2.031.507 4.059.821 6.081-.865-2.083-1.999-4.13-2.86-6.143-1.379-3.23-2.352-6.61-3.737-9.831.027-.004.048-.015.076-.018 4.156-.547 5.415 7.219 5.7 9.91Zm.37 20.831c-.483 1.03-1.91 1.171-2.5.133-.411-.724.256-1.883.739-2.387.07-.076.133-.12.195-.167.132.066.316.029.383-.11l.007-.018c.37.05.642.602 1.2.879a.72.72 0 0 0 .274.074 3.475 3.475 0 0 1-.298 1.596Zm-9.318-4.298c-.667 1.917-1.509 4.096-2.947 5.555-.474.482-.902.462-1.28.222.467-2.63 1.085-4.798 2.306-7.265.728-1.474 1.633-2.917 2.3-4.44.174-.133.346-.261.518-.387-.117 2.235-.136 4.123-.897 6.315Zm-4.557-.714c.764-1.293 1.867-2.525 3.063-3.632-.675 1.325-1.31 2.673-1.934 3.985-.712 1.496-1.517 3.213-1.82 4.923l-.074-.122c-.973-1.67-.104-3.682.765-5.154Zm-14.892-14.49c-.867-1.109-1.689-2.238-2.42-3.443-.5-.825-.677-1.776-1.255-2.536-.09-.122-.248-.092-.348-.005-.058-1.564.144-3.285.37-4.776.189-1.245.65-2.11 1.25-2.638.974 5.673 2.505 11.332 5.354 16.321-1.073-.859-2.07-1.8-2.95-2.924Zm3.082-10.263c.955 4.21-.903 8.53.315 12.561-1.05-2.464-2.128-4.913-3.017-7.452-.986-2.813-1.007-5.917-2.14-8.652 1.767-.807 4.173.593 4.842 3.543Zm-4.69 24.525c-.026-1.023 1.017-1.666 1.877-1.847 1.071-.229 1.137.849 1.2 1.759a.358.358 0 0 0 .064.18c-.777 1.227-3.095 1.649-3.14-.092Zm-7.09-6.785c-1.816 2.51-2.769 5.523-5.01 7.722-.992.975-1.98 1.186-2.785.918 1.774-5.152 5.736-8.924 10.368-11.314-.942.695-1.765 1.556-2.574 2.674Zm-9.513 4.857c.335-1.633 1.353-2.9 2.485-4.033 1.97-1.97 4.34-2.904 6.834-3.54-1.055.718-2.018 1.589-2.754 2.235-2.575 2.263-4.715 5.08-5.952 8.316-.575-.733-.85-1.823-.613-2.978ZM26.58 5.3c-.5-1.382-.108-2.411 1.174-3.09 1.533 4.394 3.341 8.876 5.892 12.78-3.178-2.504-5.828-5.738-7.066-9.69Zm2.74-3.648c.948.344 1.77.892 2.464 1.637 1.797 1.687 2.06 4.349 2.192 6.668.104 1.829.038 3.627.55 5.306a189.794 189.794 0 0 1-3.702-7.26c-.914-1.898-1.274-4.312-2.552-6.018.315-.123.654-.239 1.047-.333ZM11.406 38.183c-.073.01-.136.001-.205.002 1.453-4.812 2.624-9.635 4.623-14.235-.319 1.132-.468 2.347-.614 3.328-.383 2.57-.82 5.476-.494 8.085-.75 1.343-1.629 2.604-3.31 2.82ZM9.5 32.764c.74-2.57 2.57-4.63 4.357-6.702-1.832 3.73-3.128 7.826-3.48 11.895-1.34-.895-1.186-4.122-.877-5.193Zm-1.545-14.86c-1.293-.455-2.52-1.154-3.677-1.89-.48-.308-4.098-4.416-3.185-5.083 2.333 1.957 5.047 3.487 7.682 4.956 2.108 1.176 4.376 2.508 6.712 3.365-2.523-.345-5.037-.468-7.532-1.347Zm9.128 1.24c-2.393-1.652-5.265-2.77-7.816-4.117-2.453-1.296-4.787-2.82-7.203-4.172 5.922.22 11.839 3.17 15.02 8.289ZM21.87 30.67c-1.535-.066-2.11-1.601-1.348-2.794.876-1.378 2.38-.68 3.454-.058.109 1.175-.812 2.906-2.106 2.852ZM3.675 32.91c-.644.03-.873-.662-.94-1.203-.08-.655.356-1.2.856-1.546.462-.32 1.045-.5 1.598-.361.394.1.57.591.949.747-.251 1.141-1.309 2.306-2.463 2.363Zm14.74-26.158c1.466.359 1.207 2.523.866 3.587-.185.58-.527 1.205-1.027 1.567-1.015.193-2.048-.977-2.557-2.076-.913-1.977.723-3.564 2.718-3.078Zm21.17 1.657c-.53-1.38-.07-2.847 1.343-3.356 1.353-.49 2.252.63 2.27 1.93a3.08 3.08 0 0 1-.523 1.731c-.333.512-.963.67-1.44.993-.038.025-.051.066-.083.098-.696-.05-1.215-.476-1.567-1.396Zm28.048 4.467c.872-.488 1.66.283 1.933 1.087.388 1.14-.24 1.726-.645 2.697-.006.016-.008.03-.013.047-1.998.071-3.581-2.547-1.275-3.831Zm27.68 10.164c-2.725.73-5.48 1.154-8.252 1.345-.173-.077-.337-.16-.504-.243.076-2.738-.81-5.53-1.095-8.235-.22-2.087-.4-4.375-1.367-6.266-1.249-2.445-3.792-5.884-6.85-4.298-3.66 1.9-1.098 8.354.245 10.788 1.606 2.916 3.906 6.657 7.014 8.368-2.754.052-5.522-.104-8.295-.411-3.033-1.035-4.66-3.88-6.296-6.472 1.733-.427 1.817-3.096 1.217-4.507-.794-1.871-2.589-2.662-4.422-1.852-2.078.916-2.674 3.484-1.46 5.341.524.804 1.392 1.419 2.341 1.53a2.654 2.654 0 0 0 1.528-.256c.245 1.61 1.345 2.994 2.385 4.18a9.8 9.8 0 0 0 1.876 1.678c-4.305-.617-8.61-1.53-12.878-2.503-.019-1.943-.481-3.825-.364-5.801.122-2.028.325-4.038.27-6.073-.077-2.79-1.034-6.16-3.868-7.237C50.47-.19 50.48 8.15 51.705 11.94c-.08 2.033 2.253 4.619 3.288 6.005a11.125 11.125 0 0 0 2.81 2.66c-3.875-.897-7.713-1.802-11.482-2.527a17.829 17.829 0 0 1-2.535-2.895c-.948-1.355-1.245-2.802-1.715-4.28 3.23-.14 3.64-8.994-1.76-7.181-2.25.754-2.908 3.369-1.953 5.422.471 1.012 1.75 2.048 2.826 1.927-.013 1.443.838 2.989 1.528 4.118a11.593 11.593 0 0 0 2.19 2.624c-2.78-.5-5.726-.874-8.72-1.038a38.61 38.61 0 0 1-.385-.245c-.62-4.319.526-10.106-2.516-13.635-1.603-1.863-5.187-4.461-7.257-1.668-2.045 2.766-.13 6.252 1.458 8.746 1.744 2.742 4.018 5.155 6.789 6.726-2.553-.06-5.12.052-7.636.378-.951-.546-1.91-1.074-2.848-1.644-1.383-.838-2.57-1.91-3.874-2.853.402-.537.682-1.184.874-1.815.719-2.369.076-5.325-2.68-5.638-1.398-.159-2.973.494-3.73 1.715-.732 1.177-.363 2.726.213 3.876.333.665.84 1.243 1.412 1.653a.577.577 0 0 0 .043.184c.468 1.106 1.741 1.483 2.768.975a2.9 2.9 0 0 0 .7-.49c1.326 2.017 3.637 3.247 5.902 4.213-2.561.41-5.054 1.063-7.401 2.009C15.336 12.527 7.294 9.673.607 9.652c-.334 0-.545.27-.575.588-.65 7.126 8.692 10.977 15.07 10.395-3.358 1.84-6.303 4.429-8.571 7.962a2.525 2.525 0 0 0-1.14-.645c-1.378-.351-2.987.566-3.77 1.681-.905 1.29-.753 3.097.293 4.262.977 1.09 2.608.66 3.605-.132 1.105-.88 1.734-2.244 1.487-3.67a.39.39 0 0 0-.058-.154.213.213 0 0 0 .005-.036.583.583 0 0 0 .185-.12c2.123-2.028 4.184-3.796 6.305-5.295C10 27.855 6.65 32.698 8.55 36.778c2.315 4.976 7.293 1.055 7.577-3.084.011-.155-.12-.22-.243-.208.274-1.374.33-2.82.47-4.188.181-1.743.466-3.438.872-5.139.198-.826.524-1.552.68-2.342 2.586-1.284 5.366-2.206 8.518-2.744-.936.672-1.675 1.544-2.335 2.588-.618.978-1.403 2.407-1.721 3.744a2.701 2.701 0 0 0-.335-.02c-1.107.02-2.018.761-2.602 1.67-1.297 2.019-.215 4.456 2.15 4.784 1.94.27 3.193-1.5 3.399-3.282.108-.938-.25-1.896-.902-2.271a2.274 2.274 0 0 0-.54-.489c.383-.816.616-1.766.907-2.533.688-1.803 1.63-3.356 3.247-4.39.567-.077 1.146-.138 1.738-.191 6.11-.541 12.278.387 18.325 1.622-6.25.445-14.257 6.556-11.177 12.787 1.669 3.377 5.836 1.25 7.514-.721 3.09-3.626 3.914-8.611 8.146-11.107l2.257.498c2.073.456 4.185.94 6.317 1.42-1.411 1.321-2.768 3.055-3.336 4.933a3.021 3.021 0 0 0-1.186-.237c-1.972-.002-3.808 1.71-3.683 3.77.137 2.27 2.248 2.987 4.092 2.18.78-.342 1.54-.968 1.802-1.822a1.711 1.711 0 0 0-.035-1.15c.271-.56.301-1.161-.01-1.841a1.648 1.648 0 0 0-.261-.389c.424-.638.758-1.324 1.125-2.03a17.655 17.655 0 0 1 2.209-3.25c4.458.994 9.011 1.937 13.567 2.471-.03.053-.062.105-.093.158-2.664 1.573-5.232 3.827-6.313 6.78-.89 2.431-.477 6.362 2.45 7.17 2.357.645 4.039-3.02 4.76-4.649 1.37-3.1 1.914-5.978 1.208-9.258a55.78 55.78 0 0 0 7.209.196c-.803 1.053-1.331 2.248-1.688 3.593-.197.74-.355 1.64-.31 2.491-.244.12-.477.268-.685.444-1.447 1.222-2.25 3.614-1.161 5.326 1.255 1.974 4.224 1.783 5.282-.244.635-1.216.543-2.671-.101-3.786-.05-.836-.697-1.584-1.483-1.881-.085-.031-.169-.051-.254-.072.039-.637.048-1.28.137-1.876.21-1.398.71-2.775 1.348-4.036 3.46-.223 6.877-.845 10.209-2.032.673-.24.407-1.29-.297-1.101Z" fill="#8E9892" fill-opacity=".7"></path></svg><svg aria-label="Декоративная иконка двух веток с листами большая." fill="none" id="leaves-section-decor" viewBox="0 0 296 42"><path d="M129.41 21.157a.3.3 0 0 0-.063-.168l.156-.002-.093.17Zm-12.448 17.516c.798-6.32 5.11-14.251 12.225-17.213.039-.015.063-.037.091-.058-1.748 3.317-2.668 6.855-4.64 10.13-1.718 2.854-4.622 5.114-7.676 7.14ZM93.538 36.42c-.615 1.035-4.126 5.534-3.816 2.888.253-2.183.974-4.32 1.781-6.413 1.668-4.32 4.787-7.94 8.928-10.992-1.057 1.261-1.517 2.913-2.006 4.3-1.221 3.474-2.943 6.946-4.887 10.217ZM84.281 7c-2.559-2.971 2.058-1.368 4.202-.83 3.549.887 6.925 2.39 10.001 4.007 4.71 2.478 9.259 5.153 12.226 8.93C100.471 17.482 90.347 14.047 84.281 7Zm30.863.882c-1.162-.778-2.192-1.655-3.211-2.544.229.202-3.154-3.974-2.99-3.929 6.671 1.836 12.582 4.64 17.76 8.39 3.807 2.755 6.209 6.516 9.841 9.373-5.171-1.809-9.492-4.37-14.126-6.944-2.493-1.385-4.95-2.787-7.274-4.346Zm-55.325 29.94c-2.016 1.902-2.525 1.45-2.517-.876.009-2.458 1.443-4.802 2.997-6.87 2.598-3.45 6.717-6.11 10.41-8.817.037 0 .075 0 .113.002-3.39 5.732-5.732 11.59-11.003 16.56Zm-20.141-11.77c-2.223 3.116-4.172 6.452-8.65 7.723.946-5.777 6.383-10.252 13.143-12.338-1.981 1.13-3.404 3.085-4.493 4.615ZM3.01 20.188c7.464-2.038 14.586-1.828 22.08-.39-1.406.013-2.81.026-4.216.036-.518.006-.72.377-.615.674-5.928.705-12.127 2.283-17.249-.32Zm22.865-13.96c9.825.092 17.076 6.754 23.462 12.216-4.286-1.585-9.021-2.376-13.073-4.503-3.959-2.076-6.985-5.11-10.39-7.713Zm25.238-2.026c11.752 1.816 21.3 6.667 27.26 14.738C67.85 16.9 55.94 12.17 51.115 4.202Zm93.815 15.863c-2.102-.058-4.206-.092-6.308-.14.083-.138.073-.312-.102-.468-4.555-4.076-8.117-8.61-13.435-12.145-5.054-3.36-11.172-5.556-17.374-7.29-.427-.12-.96.266-.78.61 2.51 4.794 7.009 8.036 12.25 11.092 4.593 2.678 9.903 6.651 15.66 8.119-7.461-.153-14.926-.27-22.392-.337-1.663-3.662-6.18-6.244-10.055-8.466-6.075-3.482-12.702-6.042-20.177-7.03-.463-.06-.868.21-.756.587 1.385 4.616 6.88 8.003 11.637 10.567 2.805 1.51 6.741 3.324 10.729 4.286-7.988-.043-15.977-.052-23.968-.033C76.55 9.88 61.475 4.502 50.117 2.962c-.456-.062-1.059.24-.846.658 3.853 7.576 14.939 13.767 25.443 15.818-7.612.03-15.222.072-22.833.132a.457.457 0 0 0-.168-.143c-.305-.146-.625-.269-.937-.403-6.859-6.469-15.017-14.65-26.843-13.989-.672.037-1.103.667-.57 1.072 3.59 2.722 6.803 5.907 10.837 8.247 4.337 2.516 9.457 4.072 14.646 5.242-6.63.053-13.259.11-19.887.169C20.175 16.128 9.505 16.207.49 19.29c-.567.194-.655.914-.202 1.217 3.314 2.209 7.441 2.46 11.654 2.383 5.06-.091 11.638-.3 16.435-1.628.191-.053.292-.185.294-.318 4.427.04 8.856.075 13.284.114-7.023 2.02-11.93 7.494-12.265 13.396-.018.316.404.537.78.46 3.771-.767 6.15-2.758 8.136-5.277 1.17-1.487 2.136-3.068 3.304-4.558 1.385-1.766 3.068-2.685 5.22-3.786a.45.45 0 0 0 .206-.19c7.187.06 14.373.111 21.562.15-7.816 4.644-15.127 11.204-12.925 19.338.089.332.652.61 1.074.475 3.916-1.245 6.235-4.598 8.259-7.305 2.978-3.985 4.888-8.168 6.923-12.476.004-.007.001-.013.004-.022 8.996.041 17.993.06 26.988.028-7.554 4.183-11.938 13.208-11.304 20.112.027.293.328.631.761.594 3.728-.328 6.072-4.88 7.259-7.126 2.25-4.257 3.466-9.9 6.941-13.605 8.373-.04 16.745-.118 25.115-.259-8.368 2.343-13.134 13.039-12.915 19.205.023.623.919.86 1.493.482 8.106-5.364 11.454-11.84 14.162-19.735 4.732-.086 9.465-.185 14.195-.312.482-.012.482-.57 0-.582ZM166.496 20.987l.156.002a.306.306 0 0 0-.062.168l-.094-.17Zm4.866 10.545c-1.972-3.275-2.893-6.813-4.64-10.13.029.021.052.043.091.058 7.116 2.962 11.426 10.892 12.226 17.213-3.055-2.027-5.959-4.288-7.677-7.142Zm26.211-5.328c-.486-1.388-.947-3.04-2.004-4.301 4.142 3.052 7.261 6.672 8.928 10.992.807 2.093 1.528 4.23 1.784 6.413.306 2.646-3.204-1.853-3.818-2.888-1.943-3.271-3.668-6.743-4.89-10.216Zm-12.283-7.096c2.969-3.778 7.517-6.453 12.227-8.93 3.076-1.618 6.451-3.12 10-4.008 2.144-.538 6.76-2.141 4.203.83-6.066 7.046-16.189 10.48-26.43 12.108Zm-11.708-6.88c-4.634 2.573-8.954 5.135-14.126 6.944 3.632-2.857 6.035-6.618 9.841-9.374 5.178-3.748 11.09-6.553 17.761-8.389.163-.045-3.219 4.13-2.992 3.929-1.017.889-2.046 1.766-3.21 2.544-2.325 1.559-4.779 2.96-7.274 4.346Zm51.598 9.033c.036-.002.075-.002.112-.002 3.692 2.707 7.811 5.368 10.408 8.817 1.557 2.068 2.989 4.412 2.999 6.87.007 2.325-.502 2.778-2.517.876-5.271-4.97-7.613-10.829-11.002-16.561Zm26.648.176c6.761 2.086 12.198 6.561 13.143 12.338-4.476-1.271-6.426-4.607-8.649-7.723-1.091-1.53-2.51-3.485-4.494-4.615Zm23.913-.929c.103-.297-.098-.668-.615-.674-1.405-.01-2.811-.023-4.217-.035 7.494-1.439 14.617-1.649 22.08.389-5.122 2.603-11.321 1.025-17.248.32Zm-16.006-6.567c-4.05 2.127-8.786 2.918-13.073 4.502 6.386-5.46 13.637-12.123 23.463-12.215-3.405 2.603-6.432 5.637-10.39 7.713Zm-42.109 4.999c5.961-8.071 15.508-12.922 27.26-14.738-4.827 7.967-16.734 12.698-27.26 14.738Zm-66.554 1.707c4.73.127 9.462.226 14.193.312 2.708 7.894 6.057 14.372 14.164 19.735.572.379 1.47.141 1.491-.482.221-6.166-4.546-16.862-12.913-19.205 8.371.14 16.742.218 25.115.26 3.475 3.704 4.689 9.347 6.939 13.604 1.189 2.246 3.533 6.798 7.259 7.126.435.037.736-.301.762-.594.634-6.904-3.75-15.929-11.303-20.112 8.994.031 17.992.013 26.988-.028.002.009 0 .015.002.022 2.037 4.308 3.945 8.491 6.923 12.476 2.025 2.707 4.343 6.06 8.261 7.305.422.135.984-.143 1.073-.475 2.202-8.134-5.11-14.694-12.924-19.338 7.187-.039 14.375-.09 21.561-.15.037.07.098.137.205.19 2.153 1.1 3.837 2.02 5.222 3.786 1.168 1.49 2.134 3.07 3.305 4.558 1.983 2.519 4.362 4.51 8.135 5.278.374.076.798-.145.779-.461-.335-5.902-5.243-11.376-12.265-13.396 4.429-.039 8.858-.074 13.285-.114.002.133.104.265.294.318 4.795 1.328 11.372 1.537 16.435 1.628 4.211.078 8.339-.174 11.653-2.383.452-.303.366-1.023-.201-1.217-9.016-3.083-19.683-3.162-28.468.475-6.629-.059-13.257-.116-19.888-.17 5.189-1.17 10.308-2.725 14.645-5.241 4.035-2.34 7.248-5.525 10.838-8.247.532-.405.103-1.035-.571-1.072-11.825-.661-19.984 7.52-26.843 13.99-.313.133-.63.256-.936.402a.449.449 0 0 0-.168.143c-7.61-.06-15.221-.102-22.833-.132 10.505-2.051 21.592-8.242 25.443-15.818.213-.418-.39-.72-.846-.658-11.359 1.54-26.433 6.918-29.741 16.455-7.99-.019-15.98-.01-23.969.033 3.989-.962 7.925-2.775 10.729-4.286 4.758-2.564 10.253-5.95 11.638-10.567.114-.377-.293-.647-.755-.587-7.476.988-14.104 3.548-20.178 7.03-3.874 2.222-8.392 4.804-10.055 8.466-7.465.067-14.931.184-22.392.337 5.756-1.468 11.067-5.441 15.661-8.12 5.241-3.055 9.738-6.297 12.25-11.091.18-.344-.354-.73-.781-.61-6.202 1.734-12.318 3.93-17.374 7.29-5.318 3.535-8.881 8.069-13.435 12.145-.175.156-.185.33-.102.469-2.102.047-4.206.082-6.307.139-.484.012-.484.57 0 .582Z" fill="#8E9892" fill-opacity=".7"></path></svg><svg aria-label="Логотип интернет-магазина Ягода большой." fill="none" id="logo-desktop-transparency" viewBox="0 0 135 60"><path d="M16.625 21.282s-2.15 1.29-2.63 3.413c-.478 2.122 0 4.447 0 4.447s-3.37 1.39-3.37 5.765c0 4.374 2.843 5.61 2.843 5.61s.034 5.163 3.216 7.947c3.183 2.784 6.522 2.798 6.522 2.798s1.736 3.673 6.846 3.673c5.109 0 6.846-3.673 6.846-3.673s3.459-.505 6.522-2.798c3.063-2.291 2.98-7.947 2.98-7.947s3.08-1.235 3.08-5.61-3.372-5.764-3.372-5.764.48-2.326 0-4.448c-.481-2.122-2.63-3.413-2.63-3.413" fill="#B22EC8"></path><path d="M46.207 27.857c0-8.933-7.242-11.449-16.174-11.449-8.931 0-16.173 2.517-16.173 11.449 0 8.931 7.242 16.173 16.173 16.173 8.932 0 16.174-7.242 16.174-16.173Z" fill="#B22EC8"></path><path d="M30.547 54.923s4.374-3.058 4.088-10.092c1.88-1.957 2.464-4.586.756-7.781 2.886-4.113 2.586-8.563-.867-11.937 1.423-2.053.678-3.831-.93-5.167 0 0 4.63 2.27 8.175-.976 0 0 7.453 5.358 4.339 10.172 0 0 8.228 5.561.291 11.375 0 0 1.16 8.863-9.3 10.709 0 0-2.753 3.117-6.551 3.697Z" fill="#6A107A"></path><path d="M46.483 9.385c-3.558 16.606-14.479 10.944-15.963 8.024-1.483-2.92-.05-14.548 15.963-8.025v.001Z" fill="transparent"></path><path d="M13.62 9.385c3.558 16.606 14.48 10.944 15.963 8.024 1.484-2.92.05-14.548-15.963-8.025v.001Z" fill="transparent"></path><path d="M46.483 9.385c-3.558 16.606-14.479 10.944-15.963 8.024-1.483-2.92-.05-14.548 15.963-8.025v.001Z" stroke="#000" stroke-width="2" stroke-miterlimit="10" stroke-linecap="round" stroke-linejoin="round"></path><path d="M37.977 12.745c-2.609 1.002-5.95 2.613-7.43 4.713M13.62 9.384c3.558 16.606 14.48 10.944 15.963 8.024 1.484-2.92.05-14.548-15.963-8.025v.001Z" stroke="#000" stroke-width="2" stroke-miterlimit="10" stroke-linecap="round" stroke-linejoin="round"></path><path d="M22.127 12.745c2.609 1.002 5.949 2.613 7.429 4.713m-12.931 3.824s-2.15 1.29-2.63 3.413c-.478 2.122 0 4.447 0 4.447s-3.37 1.39-3.37 5.765c0 4.374 2.843 5.61 2.843 5.61s.034 5.163 3.216 7.947c3.183 2.784 6.522 2.798 6.522 2.798s1.736 3.673 6.846 3.673c5.109 0 6.846-3.673 6.846-3.673s3.459-.505 6.522-2.798c3.063-2.291 2.98-7.947 2.98-7.947s3.08-1.235 3.08-5.61-3.372-5.764-3.372-5.764.48-2.326 0-4.448c-.481-2.122-2.63-3.413-2.63-3.413" stroke="#000" stroke-width="2" stroke-miterlimit="10" stroke-linecap="round" stroke-linejoin="round"></path><path d="M35.203 24.563s-2.18 2.305-4.87 2.305m-5.056-2.305s2.18 2.305 4.87 2.305m11.571 6.069c0 2.41-2.068 4.363-4.619 4.363m-4.796-4.363c0 2.41 2.068 4.363 4.619 4.363m-8.686-4.363c0 2.41-2.069 4.363-4.62 4.363m-4.797-4.363c0 2.41 2.069 4.363 4.62 4.363m11.482 7.585c-.87 1.157-2.633 1.95-4.668 1.95m-4.969-2.092c.83 1.234 2.653 2.091 4.768 2.091m-4.81-1.792c0 1.033-.641 1.965-1.665 2.62m11.394-2.62c0 1.127.76 2.133 1.95 2.79" stroke="#000" stroke-width="2" stroke-miterlimit="10" stroke-linecap="round" stroke-linejoin="round"></path><path d="M19.51 35.56c0 1.972-1.385 3.637-3.286 4.178m4.62-15.205c0 2.58-2.069 4.671-4.62 4.671m22.42-4.67c0 2.579 2.069 4.67 4.62 4.67m-2.222 6.356c0 1.883 1.264 3.487 3.034 4.1" stroke="#000" stroke-width="2" stroke-miterlimit="10" stroke-linecap="round" stroke-linejoin="round"></path><path d="M78.48 45.2c-.614 0-.974-.307-1.08-.92a22.123 22.123 0 0 1-.2-2.88c-.08-2.053-.147-4.187-.2-6.4-.027-2.24-.04-3.867-.04-4.88a3.444 3.444 0 0 0-1.4 1.12c-.32.453-.627 1.04-.92 1.76-.48 1.307-.72 2.6-.72 3.88v1c0 .16-.014.653-.04 1.48a26.88 26.88 0 0 1-.24 2.72c-.16 1.333-.827 2.333-2 3-.187.107-.427.16-.72.16-.347 0-.64-.08-.88-.24-.214-.187-.28-.44-.2-.76.053-.187.133-.32.24-.4.106-.08.253-.16.44-.24.213-.08.373-.16.48-.24.4-.373.6-.88.6-1.52l.04-3.36c.053-1.307.12-2.307.2-3 .08-.72.28-1.547.6-2.48.106-.347.36-.893.76-1.64.4-.773.693-1.267.88-1.48-1.414-.693-2.4-1.56-2.96-2.6-.534-1.04-.8-2.56-.8-4.56 0-1.573.28-3.12.84-4.64.56-1.493 1.48-2.44 2.76-2.84l1.76-.6c.24-.107.506-.16.8-.16.56 0 1.2.24 1.92.72.453.267.68.707.68 1.32-.16 2.24-.24 3.933-.24 5.08V30.48c0 2.827.026 4.96.08 6.4.026 1.093.066 2.067.12 2.92.053.853.093 1.56.12 2.12l.12 2.2v.24c0 .347-.054.573-.16.68-.107.107-.32.16-.64.16ZM76.8 16.16c-.134.053-.44.16-.92.32-.454.16-.854.347-1.2.56-.4.187-.774.587-1.12 1.2a8.954 8.954 0 0 0-.76 1.88c-.187.667-.267 1.173-.24 1.52l.08 1.76c0 .827.013 1.48.04 1.96.026.747.24 1.373.64 1.88.426.48 1.013.813 1.76 1 .293.08.626.2 1 .36.4.133.693.24.88.32l-.16-12.76Zm7.637 29.16c-.027-.107-.08-.293-.16-.56a2.057 2.057 0 0 1-.04-.68c.053-3.093.133-5.4.24-6.92.026-.56.04-1.387.04-2.48 0-1.973-.094-4.36-.28-7.16-.16-3.413-.24-6-.24-7.76 0-.4.16-.76.48-1.08.32-.32.706-.48 1.16-.48 1.52 0 2.84.12 3.96.36.533.107.88.293 1.04.56.16.24.213.653.16 1.24-.374.24-.76.36-1.16.36-.134 0-.334-.027-.6-.08-.24-.053-.88-.107-1.92-.16h-.08c-.374 0-.56.2-.56.6-.134 3.867-.2 6.067-.2 6.6.053 2.773.106 4.867.16 6.28 0 .187.013.413.04.68.026.267.026.493 0 .68-.08 1.227-.12 2.52-.12 3.88 0 2.213.04 3.76.12 4.64-.027.587-.12.987-.28 1.2-.16.24-.454.36-.88.36-.107 0-.4-.027-.88-.08Zm13.773.44c-.694 0-1.334-.227-1.92-.68-.587-.427-1.067-1.013-1.44-1.76-.773-1.627-1.253-3.4-1.44-5.32-.24-1.813-.36-3.56-.36-5.24 0-.32.013-.587.04-.8v-.72c0-.133-.014-.2-.04-.2v-.72l.04-2.8c.026-.853.133-2.213.32-4.08.133-1.28.44-2.52.92-3.72.186-.533.427-.933.72-1.2.293-.293.627-.44 1-.44 1.067 0 2.026.2 2.88.6a5.872 5.872 0 0 1 2.16 1.6c.533.667.987 1.493 1.36 2.48.373.96.64 1.987.8 3.08.16 1.12.24 2.307.24 3.56v.32c0 .827.013 1.573.04 2.24l.04 2.28c0 7.68-1.787 11.52-5.36 11.52Zm-.16-1.68c.48 0 .92-.187 1.32-.56.4-.4.707-.933.92-1.6.507-1.36.813-2.827.92-4.4.133-1.36.2-2.533.2-3.52 0-1.2-.093-2.773-.28-4.72-.16-2.053-.24-3.587-.24-4.6v-.72c-.053-1.013-.4-1.893-1.04-2.64-.613-.747-1.373-1.12-2.28-1.12-.907 0-1.507.52-1.8 1.56-.267.827-.4 1.893-.4 3.2 0 .507.013.933.04 1.28v1.08l-.08 1.84c-.053.56-.08 1.173-.08 1.84 0 1.44.04 2.867.12 4.28.106 2 .373 3.947.8 5.84.427 1.973 1.053 2.96 1.88 2.96Zm23.843 5.84c-.213.053-.373.08-.48.08-.32 0-.547-.2-.68-.6-.107-.32-.16-.72-.16-1.2l.04-2.76c0-.16-.013-.307-.04-.44l-.08-.4h-4.6c.267 0-.373.133-1.92.4-1.52.24-2.707.4-3.56.48l-1.8.16-2 .2v.88c.027.347.027.76 0 1.24v.2c0 .427-.107.747-.32.96-.213.213-.413.32-.6.32-.107 0-.267-.053-.48-.16-.48-.347-.747-.827-.8-1.44l-.12-2.92c-.053-1.04.373-1.56 1.28-1.56.507-.027.907-.16 1.2-.4.293-.24.64-.613 1.04-1.12.4-.533.707-1.12.92-1.76.24-.667.467-1.467.68-2.4.24-1.013.413-2 .52-2.96.107-.96.24-2.333.4-4.12.24-2.8.36-5.613.36-8.44l-.04-2.24c0-.507.147-.92.44-1.24.293-.347.693-.52 1.2-.52.16 0 .28.013.36.04 1.227.213 2.227.347 3 .4h.2c.347 0 .547-.067.6-.2.24-.32.533-.48.88-.48.24 0 .453.053.64.16.427.16.707.56.84 1.2l-.2 6.84c0 3.707.013 6.48.04 8.32 0 .96.027 2.427.08 4.4l.04 2.2c0 .213.013.413.04.6l.08.56c.533.053.933.08 1.2.08.213 0 .373-.013.48-.04a1.941 1.941 0 0 1 1.56.44c.48.347.72.8.72 1.36 0 .72-.053 1.8-.16 3.24 0 .373-.027.907-.08 1.6-.053.56-.293.907-.72 1.04Zm-11.52-6.36c1.493-.133 2.667-.253 3.52-.36a17.47 17.47 0 0 0 2.6-.6c.267-3.227.4-6.68.4-10.36 0-3.413-.133-7.16-.4-11.24-.693-.027-1.987-.093-3.88-.2l-.04 1.88a820.22 820.22 0 0 0-.44 9.2 33.292 33.292 0 0 1-1.56 8.96c-.053.16-.173.56-.36 1.2a4.444 4.444 0 0 1-.76 1.6l.92-.08Zm22.795 1.8c-.614 0-1.067-.093-1.36-.28-.294-.187-.44-.533-.44-1.04 0-.8-.134-2.16-.4-4.08l-.16-.84-3.96-.6c-.16.613-.387 1.853-.68 3.72-.16 1.307-.414 2.173-.76 2.6-.187.24-.454.36-.8.36a1.5 1.5 0 0 1-.88-.28c-.267-.213-.4-.467-.4-.76l.08-.2.04-.16c1.76-6.853 3.093-13.613 4-20.28 0-.107.013-.28.04-.52.026-.267.053-.64.08-1.12.08-.987.16-1.773.24-2.36.106-.587.266-1.027.48-1.32h1.36c.373 0 .693.093.96.28.266.16.4.4.4.72 0 2.027.28 5.04.84 9.04.533 4.107.8 6.987.8 8.64 0 .16.066.573.2 1.24.133.613.2 1.013.2 1.2 0 .187.133.987.4 2.4.24 1.28.36 2.107.36 2.48v.04c0 .587-.214.96-.64 1.12Zm-2.64-7.68c-.08-.4-.12-.893-.12-1.48 0-2.4-.214-5.467-.64-9.2l-.4-4.16c-1.147 6.267-1.934 11-2.36 14.2.4.267 1.573.48 3.52.64Z" fill="transparent"></path></svg><svg aria-label="Логотип интернет-магазина Ягода большой." fill="none" id="logo-desktop" viewBox="0 0 135 60"><path d="M16.625 21.282s-2.15 1.29-2.63 3.413c-.478 2.122 0 4.447 0 4.447s-3.37 1.39-3.37 5.765c0 4.374 2.843 5.61 2.843 5.61s.034 5.163 3.216 7.947c3.183 2.784 6.522 2.798 6.522 2.798s1.736 3.673 6.846 3.673c5.109 0 6.846-3.673 6.846-3.673s3.459-.505 6.522-2.798c3.063-2.291 2.98-7.947 2.98-7.947s3.08-1.235 3.08-5.61-3.372-5.764-3.372-5.764.48-2.326 0-4.448c-.481-2.122-2.63-3.413-2.63-3.413" fill="#B22EC8"></path><path d="M46.207 27.857c0-8.933-7.242-11.449-16.174-11.449-8.931 0-16.173 2.517-16.173 11.449 0 8.931 7.242 16.173 16.173 16.173 8.932 0 16.174-7.242 16.174-16.173Z" fill="#B22EC8"></path><path d="M30.547 54.923s4.374-3.058 4.088-10.092c1.88-1.957 2.464-4.586.756-7.781 2.886-4.113 2.586-8.563-.867-11.937 1.423-2.053.678-3.831-.93-5.167 0 0 4.63 2.27 8.175-.976 0 0 7.453 5.358 4.339 10.172 0 0 8.228 5.561.291 11.375 0 0 1.16 8.863-9.3 10.709 0 0-2.753 3.117-6.551 3.697Z" fill="#6A107A"></path><path d="M46.483 9.385c-3.558 16.606-14.479 10.944-15.963 8.024-1.483-2.92-.05-14.548 15.963-8.025v.001Z" fill="#0F805D"></path><path d="M13.62 9.385c3.558 16.606 14.48 10.944 15.963 8.024 1.484-2.92.05-14.548-15.963-8.025v.001Z" fill="#0F805D"></path><path d="M46.483 9.385c-3.558 16.606-14.479 10.944-15.963 8.024-1.483-2.92-.05-14.548 15.963-8.025v.001Z" stroke="#000" stroke-width="2" stroke-miterlimit="10" stroke-linecap="round" stroke-linejoin="round"></path><path d="M37.977 12.745c-2.609 1.002-5.95 2.613-7.43 4.713M13.62 9.384c3.558 16.606 14.48 10.944 15.963 8.024 1.484-2.92.05-14.548-15.963-8.025v.001Z" stroke="#000" stroke-width="2" stroke-miterlimit="10" stroke-linecap="round" stroke-linejoin="round"></path><path d="M22.127 12.745c2.609 1.002 5.949 2.613 7.429 4.713m-12.931 3.824s-2.15 1.29-2.63 3.413c-.478 2.122 0 4.447 0 4.447s-3.37 1.39-3.37 5.765c0 4.374 2.843 5.61 2.843 5.61s.034 5.163 3.216 7.947c3.183 2.784 6.522 2.798 6.522 2.798s1.736 3.673 6.846 3.673c5.109 0 6.846-3.673 6.846-3.673s3.459-.505 6.522-2.798c3.063-2.291 2.98-7.947 2.98-7.947s3.08-1.235 3.08-5.61-3.372-5.764-3.372-5.764.48-2.326 0-4.448c-.481-2.122-2.63-3.413-2.63-3.413" stroke="#000" stroke-width="2" stroke-miterlimit="10" stroke-linecap="round" stroke-linejoin="round"></path><path d="M35.203 24.563s-2.18 2.305-4.87 2.305m-5.056-2.305s2.18 2.305 4.87 2.305m11.571 6.069c0 2.41-2.068 4.363-4.619 4.363m-4.796-4.363c0 2.41 2.068 4.363 4.619 4.363m-8.686-4.363c0 2.41-2.069 4.363-4.62 4.363m-4.797-4.363c0 2.41 2.069 4.363 4.62 4.363m11.482 7.585c-.87 1.157-2.633 1.95-4.668 1.95m-4.969-2.092c.83 1.234 2.653 2.091 4.768 2.091m-4.81-1.792c0 1.033-.641 1.965-1.665 2.62m11.394-2.62c0 1.127.76 2.133 1.95 2.79" stroke="#000" stroke-width="2" stroke-miterlimit="10" stroke-linecap="round" stroke-linejoin="round"></path><path d="M19.51 35.56c0 1.972-1.385 3.637-3.286 4.178m4.62-15.205c0 2.58-2.069 4.671-4.62 4.671m22.42-4.67c0 2.579 2.069 4.67 4.62 4.67m-2.222 6.356c0 1.883 1.264 3.487 3.034 4.1" stroke="#000" stroke-width="2" stroke-miterlimit="10" stroke-linecap="round" stroke-linejoin="round"></path><path d="M78.48 45.2c-.614 0-.974-.307-1.08-.92a22.123 22.123 0 0 1-.2-2.88c-.08-2.053-.147-4.187-.2-6.4-.027-2.24-.04-3.867-.04-4.88a3.444 3.444 0 0 0-1.4 1.12c-.32.453-.627 1.04-.92 1.76-.48 1.307-.72 2.6-.72 3.88v1c0 .16-.014.653-.04 1.48a26.88 26.88 0 0 1-.24 2.72c-.16 1.333-.827 2.333-2 3-.187.107-.427.16-.72.16-.347 0-.64-.08-.88-.24-.214-.187-.28-.44-.2-.76.053-.187.133-.32.24-.4.106-.08.253-.16.44-.24.213-.08.373-.16.48-.24.4-.373.6-.88.6-1.52l.04-3.36c.053-1.307.12-2.307.2-3 .08-.72.28-1.547.6-2.48.106-.347.36-.893.76-1.64.4-.773.693-1.267.88-1.48-1.414-.693-2.4-1.56-2.96-2.6-.534-1.04-.8-2.56-.8-4.56 0-1.573.28-3.12.84-4.64.56-1.493 1.48-2.44 2.76-2.84l1.76-.6c.24-.107.506-.16.8-.16.56 0 1.2.24 1.92.72.453.267.68.707.68 1.32-.16 2.24-.24 3.933-.24 5.08V30.48c0 2.827.026 4.96.08 6.4.026 1.093.066 2.067.12 2.92.053.853.093 1.56.12 2.12l.12 2.2v.24c0 .347-.054.573-.16.68-.107.107-.32.16-.64.16ZM76.8 16.16c-.134.053-.44.16-.92.32-.454.16-.854.347-1.2.56-.4.187-.774.587-1.12 1.2a8.954 8.954 0 0 0-.76 1.88c-.187.667-.267 1.173-.24 1.52l.08 1.76c0 .827.013 1.48.04 1.96.026.747.24 1.373.64 1.88.426.48 1.013.813 1.76 1 .293.08.626.2 1 .36.4.133.693.24.88.32l-.16-12.76Zm7.637 29.16c-.027-.107-.08-.293-.16-.56a2.057 2.057 0 0 1-.04-.68c.053-3.093.133-5.4.24-6.92.026-.56.04-1.387.04-2.48 0-1.973-.094-4.36-.28-7.16-.16-3.413-.24-6-.24-7.76 0-.4.16-.76.48-1.08.32-.32.706-.48 1.16-.48 1.52 0 2.84.12 3.96.36.533.107.88.293 1.04.56.16.24.213.653.16 1.24-.374.24-.76.36-1.16.36-.134 0-.334-.027-.6-.08-.24-.053-.88-.107-1.92-.16h-.08c-.374 0-.56.2-.56.6-.134 3.867-.2 6.067-.2 6.6.053 2.773.106 4.867.16 6.28 0 .187.013.413.04.68.026.267.026.493 0 .68-.08 1.227-.12 2.52-.12 3.88 0 2.213.04 3.76.12 4.64-.027.587-.12.987-.28 1.2-.16.24-.454.36-.88.36-.107 0-.4-.027-.88-.08Zm13.773.44c-.694 0-1.334-.227-1.92-.68-.587-.427-1.067-1.013-1.44-1.76-.773-1.627-1.253-3.4-1.44-5.32-.24-1.813-.36-3.56-.36-5.24 0-.32.013-.587.04-.8v-.72c0-.133-.014-.2-.04-.2v-.72l.04-2.8c.026-.853.133-2.213.32-4.08.133-1.28.44-2.52.92-3.72.186-.533.427-.933.72-1.2.293-.293.627-.44 1-.44 1.067 0 2.026.2 2.88.6a5.872 5.872 0 0 1 2.16 1.6c.533.667.987 1.493 1.36 2.48.373.96.64 1.987.8 3.08.16 1.12.24 2.307.24 3.56v.32c0 .827.013 1.573.04 2.24l.04 2.28c0 7.68-1.787 11.52-5.36 11.52Zm-.16-1.68c.48 0 .92-.187 1.32-.56.4-.4.707-.933.92-1.6.507-1.36.813-2.827.92-4.4.133-1.36.2-2.533.2-3.52 0-1.2-.093-2.773-.28-4.72-.16-2.053-.24-3.587-.24-4.6v-.72c-.053-1.013-.4-1.893-1.04-2.64-.613-.747-1.373-1.12-2.28-1.12-.907 0-1.507.52-1.8 1.56-.267.827-.4 1.893-.4 3.2 0 .507.013.933.04 1.28v1.08l-.08 1.84c-.053.56-.08 1.173-.08 1.84 0 1.44.04 2.867.12 4.28.106 2 .373 3.947.8 5.84.427 1.973 1.053 2.96 1.88 2.96Zm23.843 5.84c-.213.053-.373.08-.48.08-.32 0-.547-.2-.68-.6-.107-.32-.16-.72-.16-1.2l.04-2.76c0-.16-.013-.307-.04-.44l-.08-.4h-4.6c.267 0-.373.133-1.92.4-1.52.24-2.707.4-3.56.48l-1.8.16-2 .2v.88c.027.347.027.76 0 1.24v.2c0 .427-.107.747-.32.96-.213.213-.413.32-.6.32-.107 0-.267-.053-.48-.16-.48-.347-.747-.827-.8-1.44l-.12-2.92c-.053-1.04.373-1.56 1.28-1.56.507-.027.907-.16 1.2-.4.293-.24.64-.613 1.04-1.12.4-.533.707-1.12.92-1.76.24-.667.467-1.467.68-2.4.24-1.013.413-2 .52-2.96.107-.96.24-2.333.4-4.12.24-2.8.36-5.613.36-8.44l-.04-2.24c0-.507.147-.92.44-1.24.293-.347.693-.52 1.2-.52.16 0 .28.013.36.04 1.227.213 2.227.347 3 .4h.2c.347 0 .547-.067.6-.2.24-.32.533-.48.88-.48.24 0 .453.053.64.16.427.16.707.56.84 1.2l-.2 6.84c0 3.707.013 6.48.04 8.32 0 .96.027 2.427.08 4.4l.04 2.2c0 .213.013.413.04.6l.08.56c.533.053.933.08 1.2.08.213 0 .373-.013.48-.04a1.941 1.941 0 0 1 1.56.44c.48.347.72.8.72 1.36 0 .72-.053 1.8-.16 3.24 0 .373-.027.907-.08 1.6-.053.56-.293.907-.72 1.04Zm-11.52-6.36c1.493-.133 2.667-.253 3.52-.36a17.47 17.47 0 0 0 2.6-.6c.267-3.227.4-6.68.4-10.36 0-3.413-.133-7.16-.4-11.24-.693-.027-1.987-.093-3.88-.2l-.04 1.88a820.22 820.22 0 0 0-.44 9.2 33.292 33.292 0 0 1-1.56 8.96c-.053.16-.173.56-.36 1.2a4.444 4.444 0 0 1-.76 1.6l.92-.08Zm22.795 1.8c-.614 0-1.067-.093-1.36-.28-.294-.187-.44-.533-.44-1.04 0-.8-.134-2.16-.4-4.08l-.16-.84-3.96-.6c-.16.613-.387 1.853-.68 3.72-.16 1.307-.414 2.173-.76 2.6-.187.24-.454.36-.8.36a1.5 1.5 0 0 1-.88-.28c-.267-.213-.4-.467-.4-.76l.08-.2.04-.16c1.76-6.853 3.093-13.613 4-20.28 0-.107.013-.28.04-.52.026-.267.053-.64.08-1.12.08-.987.16-1.773.24-2.36.106-.587.266-1.027.48-1.32h1.36c.373 0 .693.093.96.28.266.16.4.4.4.72 0 2.027.28 5.04.84 9.04.533 4.107.8 6.987.8 8.64 0 .16.066.573.2 1.24.133.613.2 1.013.2 1.2 0 .187.133.987.4 2.4.24 1.28.36 2.107.36 2.48v.04c0 .587-.214.96-.64 1.12Zm-2.64-7.68c-.08-.4-.12-.893-.12-1.48 0-2.4-.214-5.467-.64-9.2l-.4-4.16c-1.147 6.267-1.934 11-2.36 14.2.4.267 1.573.48 3.52.64Z" fill="#0F805D"></path></svg><svg aria-label="Логотип интернет-магазина Ягода маленький." fill="none" id="logo-mobile-transparency" viewBox="0 0 52 52"><path d="M14.408 18.444s-1.863 1.119-2.278 2.958c-.416 1.84 0 3.854 0 3.854s-2.922 1.206-2.922 4.996c0 3.791 2.464 4.863 2.464 4.863s.03 4.474 2.787 6.887c2.759 2.413 5.653 2.425 5.653 2.425s1.505 3.183 5.933 3.183 5.933-3.183 5.933-3.183 2.998-.438 5.653-2.425c2.654-1.986 2.581-6.887 2.581-6.887s2.67-1.07 2.67-4.863c0-3.791-2.922-4.995-2.922-4.995s.416-2.015 0-3.855c-.417-1.84-2.279-2.958-2.279-2.958" fill="#B22EC8"></path><path d="M40.046 24.142c0-7.741-6.276-9.921-14.017-9.921-7.74 0-14.017 2.18-14.017 9.921S18.288 38.16 26.029 38.16c7.74 0 14.017-6.276 14.017-14.017Z" fill="#B22EC8"></path><path d="M26.475 47.6s3.79-2.65 3.542-8.747c1.63-1.695 2.136-3.974.655-6.743 2.501-3.565 2.241-7.421-.75-10.345 1.232-1.78.587-3.32-.807-4.479 0 0 4.012 1.968 7.085-.845 0 0 6.459 4.644 3.76 8.816 0 0 7.131 4.82.253 9.858 0 0 1.004 7.681-8.06 9.28 0 0-2.386 2.702-5.678 3.205Z" fill="#6A107A"></path><path d="M40.286 8.134c-3.084 14.391-12.549 9.485-13.835 6.954-1.286-2.531-.044-12.609 13.835-6.955Z" fill="transparent"></path><path d="M11.804 8.134c3.084 14.391 12.549 9.485 13.835 6.954 1.285-2.531.043-12.609-13.835-6.955Z" fill="transparent"></path><path d="M40.285 8.134c-3.083 14.391-12.548 9.485-13.834 6.954-1.286-2.531-.044-12.609 13.834-6.955v0Z" stroke="#000" stroke-width="2" stroke-miterlimit="10" stroke-linecap="round" stroke-linejoin="round"></path><path d="M32.913 11.046c-2.26.868-5.156 2.264-6.438 4.084M11.803 8.134c3.084 14.391 12.549 9.485 13.835 6.954 1.285-2.531.043-12.609-13.835-6.955v0Z" stroke="#000" stroke-width="2" stroke-miterlimit="10" stroke-linecap="round" stroke-linejoin="round"></path><path d="M19.176 11.046c2.262.868 5.156 2.264 6.439 4.084m-11.207 3.314s-1.863 1.119-2.278 2.958c-.416 1.84 0 3.854 0 3.854s-2.922 1.206-2.922 4.996c0 3.791 2.464 4.863 2.464 4.863s.03 4.474 2.787 6.887c2.759 2.413 5.653 2.425 5.653 2.425s1.505 3.183 5.933 3.183 5.933-3.183 5.933-3.183 2.998-.438 5.653-2.425c2.654-1.986 2.581-6.887 2.581-6.887s2.67-1.07 2.67-4.863c0-3.791-2.922-4.995-2.922-4.995s.416-2.015 0-3.855c-.417-1.84-2.279-2.958-2.279-2.958" stroke="#000" stroke-width="2" stroke-miterlimit="10" stroke-linecap="round" stroke-linejoin="round"></path><path d="M30.509 21.288s-1.89 1.998-4.221 1.998m-4.382-1.998s1.89 1.998 4.221 1.998m10.029 5.26c0 2.088-1.793 3.78-4.003 3.78m-4.158-3.78c0 2.088 1.793 3.78 4.004 3.78m-7.528-3.78c0 2.088-1.793 3.78-4.004 3.78m-4.157-3.78c0 2.088 1.792 3.78 4.004 3.78m9.95 6.574c-.753 1.004-2.282 1.69-4.045 1.69m-4.306-1.813c.718 1.07 2.299 1.813 4.132 1.813m-4.169-1.554c0 .896-.555 1.704-1.443 2.27m9.875-2.27c0 .977.66 1.849 1.69 2.418" stroke="#000" stroke-width="2" stroke-miterlimit="10" stroke-linecap="round" stroke-linejoin="round"></path><path d="M16.908 30.819c0 1.708-1.2 3.152-2.847 3.62m4.003-13.177c0 2.235-1.793 4.048-4.004 4.048m19.431-4.048c0 2.235 1.793 4.048 4.004 4.048M35.57 30.82c0 1.632 1.095 3.022 2.629 3.553" stroke="#000" stroke-width="2" stroke-miterlimit="10" stroke-linecap="round" stroke-linejoin="round"></path></svg><svg aria-label="Логотип интернет-магазина Ягода маленький." fill="none" id="logo-mobile" viewBox="0 0 52 52"><path d="M14.408 18.444s-1.863 1.119-2.278 2.958c-.416 1.84 0 3.854 0 3.854s-2.922 1.206-2.922 4.996c0 3.791 2.464 4.863 2.464 4.863s.03 4.474 2.787 6.887c2.759 2.413 5.653 2.425 5.653 2.425s1.505 3.183 5.933 3.183 5.933-3.183 5.933-3.183 2.998-.438 5.653-2.425c2.654-1.986 2.581-6.887 2.581-6.887s2.67-1.07 2.67-4.863c0-3.791-2.922-4.995-2.922-4.995s.416-2.015 0-3.855c-.417-1.84-2.279-2.958-2.279-2.958" fill="#B22EC8"></path><path d="M40.046 24.142c0-7.741-6.276-9.921-14.017-9.921-7.74 0-14.017 2.18-14.017 9.921S18.288 38.16 26.029 38.16c7.74 0 14.017-6.276 14.017-14.017Z" fill="#B22EC8"></path><path d="M26.475 47.6s3.79-2.65 3.542-8.747c1.63-1.695 2.136-3.974.655-6.743 2.501-3.565 2.241-7.421-.75-10.345 1.232-1.78.587-3.32-.807-4.479 0 0 4.012 1.968 7.085-.845 0 0 6.459 4.644 3.76 8.816 0 0 7.131 4.82.253 9.858 0 0 1.004 7.681-8.06 9.28 0 0-2.386 2.702-5.678 3.205Z" fill="#6A107A"></path><path d="M40.286 8.134c-3.084 14.391-12.549 9.485-13.835 6.954-1.286-2.531-.044-12.609 13.835-6.955Z" fill="#0F805D"></path><path d="M11.804 8.134c3.084 14.391 12.549 9.485 13.835 6.954 1.285-2.531.043-12.609-13.835-6.955Z" fill="#0F805D"></path><path d="M40.285 8.134c-3.083 14.391-12.548 9.485-13.834 6.954-1.286-2.531-.044-12.609 13.834-6.955v0Z" stroke="#000" stroke-width="2" stroke-miterlimit="10" stroke-linecap="round" stroke-linejoin="round"></path><path d="M32.913 11.046c-2.26.868-5.156 2.264-6.438 4.084M11.803 8.134c3.084 14.391 12.549 9.485 13.835 6.954 1.285-2.531.043-12.609-13.835-6.955v0Z" stroke="#000" stroke-width="2" stroke-miterlimit="10" stroke-linecap="round" stroke-linejoin="round"></path><path d="M19.176 11.046c2.262.868 5.156 2.264 6.439 4.084m-11.207 3.314s-1.863 1.119-2.278 2.958c-.416 1.84 0 3.854 0 3.854s-2.922 1.206-2.922 4.996c0 3.791 2.464 4.863 2.464 4.863s.03 4.474 2.787 6.887c2.759 2.413 5.653 2.425 5.653 2.425s1.505 3.183 5.933 3.183 5.933-3.183 5.933-3.183 2.998-.438 5.653-2.425c2.654-1.986 2.581-6.887 2.581-6.887s2.67-1.07 2.67-4.863c0-3.791-2.922-4.995-2.922-4.995s.416-2.015 0-3.855c-.417-1.84-2.279-2.958-2.279-2.958" stroke="#000" stroke-width="2" stroke-miterlimit="10" stroke-linecap="round" stroke-linejoin="round"></path><path d="M30.509 21.288s-1.89 1.998-4.221 1.998m-4.382-1.998s1.89 1.998 4.221 1.998m10.029 5.26c0 2.088-1.793 3.78-4.003 3.78m-4.158-3.78c0 2.088 1.793 3.78 4.004 3.78m-7.528-3.78c0 2.088-1.793 3.78-4.004 3.78m-4.157-3.78c0 2.088 1.792 3.78 4.004 3.78m9.95 6.574c-.753 1.004-2.282 1.69-4.045 1.69m-4.306-1.813c.718 1.07 2.299 1.813 4.132 1.813m-4.169-1.554c0 .896-.555 1.704-1.443 2.27m9.875-2.27c0 .977.66 1.849 1.69 2.418" stroke="#000" stroke-width="2" stroke-miterlimit="10" stroke-linecap="round" stroke-linejoin="round"></path><path d="M16.908 30.819c0 1.708-1.2 3.152-2.847 3.62m4.003-13.177c0 2.235-1.793 4.048-4.004 4.048m19.431-4.048c0 2.235 1.793 4.048 4.004 4.048M35.57 30.82c0 1.632 1.095 3.022 2.629 3.553" stroke="#000" stroke-width="2" stroke-miterlimit="10" stroke-linecap="round" stroke-linejoin="round"></path></svg><svg aria-label="Телефонная трубка." fill="none" id="phone" viewBox="0 0 16 20"><path d="m4.562.504-.86.26A4.2 4.2 0 0 0 .757 4.188C.401 6.67 1.197 9.572 3.12 12.9c1.916 3.32 4.026 5.458 6.348 6.394a4.2 4.2 0 0 0 4.458-.846l.65-.617a2.4 2.4 0 0 0 .297-3.148l-1.628-2.256a1.8 1.8 0 0 0-1.986-.667l-2.46.753-.064.012c-.272.04-.898-.548-1.678-1.899-.816-1.413-.984-2.24-.76-2.454l1.252-1.167a2.996 2.996 0 0 0 .69-3.42l-.794-1.766A2.4 2.4 0 0 0 4.564.504h-.002ZM6.35 2.31l.792 1.766a1.796 1.796 0 0 1-.412 2.052L5.474 7.296c-.802.761-.536 2.06.544 3.93 1.015 1.758 1.942 2.627 2.938 2.476l.148-.031 2.506-.765a.6.6 0 0 1 .662.222l1.628 2.256a1.2 1.2 0 0 1-.148 1.575l-.652.617a3 3 0 0 1-3.183.603c-2.038-.82-3.964-2.773-5.758-5.88C2.36 9.185 1.632 6.537 1.945 4.36A3 3 0 0 1 4.05 1.912l.86-.26a1.2 1.2 0 0 1 1.44.658h.001Z" fill="currentColor"></path></svg><svg aria-label="Снежинка." fill="none" id="snowflake" viewBox="0 0 25 24"><path d="M12.504 24a.924.924 0 0 1-.606-.22.705.705 0 0 1-.252-.53v-1.94l-1.108.971a.924.924 0 0 1-.607.22.924.924 0 0 1-.606-.22.706.706 0 0 1-.251-.531c0-.2.09-.39.251-.531l2.321-2.03V13.3l-5.832 2.945-.85 2.774a.773.773 0 0 1-.401.456.967.967 0 0 1-.651.074.852.852 0 0 1-.52-.35.668.668 0 0 1-.086-.57l.407-1.323-1.922.97a.967.967 0 0 1-.648.071.852.852 0 0 1-.518-.349.668.668 0 0 1-.087-.566.77.77 0 0 1 .396-.456l1.921-.969-1.516-.355a.912.912 0 0 1-.3-.13.79.79 0 0 1-.22-.22.66.66 0 0 1-.085-.57.718.718 0 0 1 .147-.262.835.835 0 0 1 .252-.193.979.979 0 0 1 .651-.074l3.17.742L10.79 12 4.956 9.056l-3.173.742a.965.965 0 0 1-.643-.082.77.77 0 0 1-.393-.452.668.668 0 0 1 .082-.564.849.849 0 0 1 .511-.351l1.515-.356-1.921-.969a.836.836 0 0 1-.254-.192.718.718 0 0 1-.15-.263.66.66 0 0 1 .085-.572.792.792 0 0 1 .222-.22.913.913 0 0 1 .301-.13.977.977 0 0 1 .653.079l1.922.968-.407-1.324a.66.66 0 0 1 .079-.576.79.79 0 0 1 .222-.223.912.912 0 0 1 .303-.131.977.977 0 0 1 .657.078.83.83 0 0 1 .251.198c.068.08.118.17.145.267l.85 2.774 5.833 2.944v-5.89l-2.32-2.03a.753.753 0 0 1-.187-.243.67.67 0 0 1 0-.575.752.752 0 0 1 .186-.243.875.875 0 0 1 .278-.163.966.966 0 0 1 .657 0 .876.876 0 0 1 .278.162l1.108.97V.75c0-.199.09-.39.252-.53.16-.141.379-.22.606-.22.228 0 .446.079.607.22.16.14.25.331.25.53v1.94l1.11-.971c.162-.14.38-.22.608-.22.227 0 .445.08.606.22.161.142.251.333.251.532s-.09.39-.252.53l-2.322 2.03v5.89l5.832-2.945.85-2.775a.773.773 0 0 1 .401-.455.967.967 0 0 1 .651-.074c.22.052.407.178.521.35a.669.669 0 0 1 .085.57l-.405 1.322 1.921-.968a.967.967 0 0 1 .649-.072.852.852 0 0 1 .518.348.669.669 0 0 1 .086.567.77.77 0 0 1-.395.455l-1.921.97 1.514.355c.22.052.407.178.521.35a.669.669 0 0 1 .085.57.773.773 0 0 1-.4.455.967.967 0 0 1-.651.074l-3.17-.742L14.22 12l5.832 2.944 3.172-.742a.967.967 0 0 1 .65.075c.198.1.341.263.4.455a.668.668 0 0 1-.085.57.852.852 0 0 1-.521.349l-1.515.355 1.921.97a.77.77 0 0 1 .396.455.669.669 0 0 1-.087.566.852.852 0 0 1-.518.35.967.967 0 0 1-.648-.073l-1.922-.969.405 1.325a.659.659 0 0 1-.079.576.79.79 0 0 1-.221.223.912.912 0 0 1-.303.131.977.977 0 0 1-.657-.078.83.83 0 0 1-.252-.198.713.713 0 0 1-.145-.267l-.849-2.773-5.832-2.945v5.89l2.32 2.03c.162.14.252.331.252.53 0 .2-.09.39-.25.531a.924.924 0 0 1-.607.22.925.925 0 0 1-.607-.219l-1.11-.97v1.939c0 .199-.09.39-.251.53a.924.924 0 0 1-.607.22h.002Z" fill="#0F805D"></path></svg><svg aria-label="Логотип Телеграма" fill="none" id="telegram" viewBox="0 0 22 20"><path d="M20.945.765a1.552 1.552 0 0 0-1.572-.244L1.456 7.754a1.543 1.543 0 0 0 .078 2.884L5.4 11.98l2.095 6.926c.004.014.017.023.023.036a.488.488 0 0 0 .319.293c.01.004.017.013.027.015h.006l.003.001a.449.449 0 0 0 .233-.012c.008-.002.016-.002.025-.005a.497.497 0 0 0 .191-.122c.006-.007.016-.008.022-.014l3.013-3.326 4.397 3.405c.267.21.596.322.935.322.734 0 1.367-.514 1.518-1.23L21.469 2.25a1.533 1.533 0 0 0-.524-1.486v.001ZM8.588 13.295l-.707 3.437-1.475-4.878 7.315-3.81-4.997 4.998a.498.498 0 0 0-.136.253Zm8.639 4.772a.54.54 0 0 1-.347.4.525.525 0 0 1-.514-.079L11.603 14.7a.5.5 0 0 0-.676.06L8.83 17.07l.706-3.427 7.189-7.19a.5.5 0 0 0-.584-.797L5.778 11.054 1.861 9.692A.526.526 0 0 1 1.5 9.2a.532.532 0 0 1 .334-.518L19.748 1.45a.536.536 0 0 1 .558.086.523.523 0 0 1 .182.518l-3.261 16.015Z" fill="currentColor"></path></svg><svg aria-label="Галочка светло-зеленая." fill="none" id="tick-hover" viewBox="0 0 14 11"><path d="M5 11 0 5.804 1.59 4.19 5 7.7 12.41 0 14 1.655 5 11Z" fill="#7BDB0A"></path></svg><svg aria-label="Галочка темно-зеленая." fill="none" id="tick" viewBox="0 0 14 11"><path d="M5 11 0 5.804 1.59 4.19 5 7.7 12.41 0 14 1.655 5 11Z" fill="#0F805D"></path></svg><svg aria-label="Грузовик." fill="none" id="truck" viewBox="0 0 33 32"><path d="M25.833 9.333c0-1.466-1.2-2.666-2.666-2.666h-4v2.666h4v3.534l-4.64 5.8h-4.694V12H8.5a5.332 5.332 0 0 0-5.333 5.333v4h2.666c0 2.214 1.787 4 4 4 2.214 0 4-1.786 4-4h5.974l6.026-7.533V9.333Zm-20 9.334v-1.334c0-1.466 1.2-2.666 2.667-2.666h2.667v4H5.833Zm4 4c-.733 0-1.333-.6-1.333-1.334h2.667c0 .734-.6 1.334-1.334 1.334Z" fill="#0F805D"></path><path d="M7.167 8h6.666v2.667H7.167V8Zm18.666 9.333c-2.213 0-4 1.787-4 4 0 2.214 1.787 4 4 4 2.214 0 4-1.786 4-4 0-2.213-1.786-4-4-4Zm0 5.334c-.733 0-1.333-.6-1.333-1.334 0-.733.6-1.333 1.333-1.333.734 0 1.334.6 1.334 1.333 0 .734-.6 1.334-1.334 1.334Z" fill="#0F805D"></path></svg><svg aria-label="Логотип ВКонтакте." fill="none" id="vk" viewBox="0 0 23 14"><path d="M0 1.926C0 1.222.439.842 1.316.787l3.381.02c.227 0 .378.104.454.311.348 1.036.737 1.93 1.168 2.682a32.6 32.6 0 0 0 1.69 2.6c.061.124.16.186.296.186a.28.28 0 0 0 .25-.145l.067-.228.023-3.583c0-.248-.064-.414-.193-.497-.128-.083-.367-.145-.714-.186-.273-.042-.409-.194-.409-.456 0-.055.008-.097.023-.124C7.669.469 8.577.02 10.075.02L11.345 0c.575 0 1.052.131 1.43.393.378.263.567.677.567 1.243v4.701a.549.549 0 0 0 .295.104c.227 0 .424-.124.59-.373 1.664-2.126 2.564-3.548 2.7-4.266 0-.014.015-.049.046-.104.105-.207.28-.386.521-.538a2.75 2.75 0 0 1 .636-.31.487.487 0 0 1 .204-.042h3.517l.227.02c.303 0 .537.132.703.394a.74.74 0 0 1 .125.27c.023.096.038.192.046.29l.011.165v.145c-.106.566-.374 1.17-.806 1.812a19.53 19.53 0 0 1-1.645 2.081c-.665.746-1.081 1.236-1.248 1.47-.136.166-.204.318-.204.456 0 .11.06.235.182.373l3.313 3.81c.181.222.272.463.272.726 0 .317-.136.58-.409.787a1.788 1.788 0 0 1-.975.352l-.386.02h-3.449a.756.756 0 0 0-.09.01.763.763 0 0 1-.092.011c-.332 0-.642-.131-.93-.393-.106-.11-.817-.925-2.133-2.444a1.167 1.167 0 0 0-.317-.27c-.061.221-.14.539-.239.953-.098.414-.17.711-.215.89l-.068.353c-.152.483-.47.773-.953.87l-.318.02h-2.224c-1.255 0-2.507-.524-3.755-1.574-1.248-1.049-2.371-2.405-3.37-4.07-.998-1.663-1.928-3.6-2.79-5.808A1.532 1.532 0 0 1 0 1.926ZM13.637 7.29c-.318 0-.605-.08-.862-.238-.257-.159-.386-.376-.386-.653V1.636c0-.276-.075-.473-.227-.59-.151-.117-.416-.176-.794-.176L10.075.91c-.65 0-1.142.104-1.475.31.665.29.998.76.998 1.41v3.644c-.03.345-.181.632-.454.86a1.38 1.38 0 0 1-.907.341c-.454 0-.802-.2-1.044-.6-1.18-1.63-2.057-3.176-2.632-4.64l-.204-.538-3.018-.02c-.197 0-.307.01-.33.03-.022.021-.033.08-.033.177 0 .124.015.255.045.393l.477 1.16c1.27 2.996 2.65 5.357 4.14 7.083 1.49 1.725 2.954 2.588 4.391 2.588h2.27c.09 0 .158-.024.204-.072.045-.048.083-.142.113-.28l.045-.207.431-1.822c.121-.249.227-.414.318-.497a.846.846 0 0 1 .59-.228c.363 0 .734.2 1.112.6l1.929 2.237c.12.18.25.27.385.27h3.744c.454 0 .681-.104.681-.311a.375.375 0 0 0-.068-.207l-3.29-3.749c-.257-.29-.386-.6-.386-.932 0-.331.121-.649.363-.952.197-.277.579-.736 1.146-1.378a31.167 31.167 0 0 0 1.486-1.801c.424-.56.704-1.067.84-1.523l.068-.269a.295.295 0 0 1-.023-.134.458.458 0 0 0-.022-.156h-3.563a1.234 1.234 0 0 0-.544.373l-.137.393c-.378.953-1.369 2.424-2.972 4.412a1.642 1.642 0 0 1-1.112.414Z" fill="currentColor"></path></svg><svg aria-label="Логотип Ютуба." fill="none" id="youtube" viewBox="0 0 22 16"><path d="m14.206 7.69-4.5-3a.375.375 0 0 0-.581.31v6a.365.365 0 0 0 .197.328.421.421 0 0 0 .178.047.337.337 0 0 0 .206-.066l4.5-3a.366.366 0 0 0 0-.618Zm-4.331 2.607V5.703L13.325 8l-3.45 2.297Zm10.734-7.66a1.914 1.914 0 0 0-1.134-1.274C16.306.143 11.215.163 11 .163c-.216 0-5.306-.02-8.475 1.2a1.913 1.913 0 0 0-1.134 1.275C1.156 3.547.875 5.216.875 8c0 2.784.281 4.453.516 5.363a1.913 1.913 0 0 0 1.134 1.275c3.169 1.218 8.26 1.2 8.475 1.2h.066c.646 0 5.4-.038 8.409-1.2a1.914 1.914 0 0 0 1.134-1.275c.235-.91.516-2.579.516-5.363 0-2.784-.281-4.453-.516-5.362Zm-.73 10.538a1.123 1.123 0 0 1-.676.76c-3.037 1.171-8.147 1.153-8.203 1.153-.056 0-5.166.018-8.203-1.153a1.125 1.125 0 0 1-.675-.76C1.897 12.303 1.625 10.7 1.625 8c0-2.7.272-4.303.497-5.175a1.125 1.125 0 0 1 .675-.76C5.834.895 10.944.914 11 .914c.056 0 5.166-.02 8.203 1.153a1.124 1.124 0 0 1 .675.76c.225.871.497 2.474.497 5.174s-.272 4.303-.497 5.175Z" fill="currentColor"></path></svg></svg>